# xmcd CD database file
#
# Track frame offsets:
#	225
#	22235
#	38955
#	53373
#	69738
#	86982
#	102923
#	119276
#	135075
#	150690
#	169084
#	191480
#
# Disc length: 2749 seconds
#
# Revision: 0
# Processed by: cddbd v1.5.1PL0 Copyright (c) Steve Scherf et al.
# Submitted via: CDex 1.51
#
DISCID=9d0aba0c
DTITLE=Kim McLean - Happy Face
DYEAR=2004
DGENRE=Country
TTITLE0=Cryin' Days
TTITLE1=Angles and Eagles
TTITLE2=Happy Face
TTITLE3=Life in a Frame
TTITLE4=Forever Every Day
TTITLE5=Unapologetic
TTITLE6=Born Again Today
TTITLE7=Song of Eve
TTITLE8=All About Us
TTITLE9=Marry Alice Jones
TTITLE10=Same river Twice
TTITLE11=I'm Goin' Home
EXTD=YEAR: 2004
EXTT0=
EXTT1=
EXTT2=
EXTT3=
EXTT4=
EXTT5=
EXTT6=
EXTT7=
EXTT8=
EXTT9=
EXTT10=
EXTT11=
PLAYORDER=
